<svg height="512" viewBox="0 0 64 64" width="512" xmlns="http://www.w3.org/2000/svg"><g id="Filled_outline" data-name="Filled outline"><path d="m20 55h24v6h-24z" fill="#7d8d9c"/><path d="m32 58c14.912 0 27-10.745 27-24h-54c0 13.255 12.088 24 27 24z" fill="#cfdfe8"/><path d="m55 24h2a0 0 0 0 1 0 0v2a4 4 0 0 1 -4 4h-2a0 0 0 0 1 0 0v-2a4 4 0 0 1 4-4z" fill="#55b56a" transform="matrix(-1 0 0 -1 108 54)"/><path d="m9 24h2a4 4 0 0 1 4 4v2a0 0 0 0 1 0 0h-2a4 4 0 0 1 -4-4v-2a0 0 0 0 1 0 0z" fill="#55b56a"/><path d="m21 3a2 2 0 0 1 2 2v25a0 0 0 0 1 0 0h-4a0 0 0 0 1 0 0v-25a2 2 0 0 1 2-2z" fill="#c7d7e2"/><path d="m25 3a2 2 0 0 1 2 2v25a0 0 0 0 1 0 0h-4a0 0 0 0 1 0 0v-25a2 2 0 0 1 2-2z" fill="#aabece"/><path d="m29 3a2 2 0 0 1 2 2v25a0 0 0 0 1 0 0h-4a0 0 0 0 1 0 0v-25a2 2 0 0 1 2-2z" fill="#c7d7e2"/><path d="m14 9h5a0 0 0 0 1 0 0v4a0 0 0 0 1 0 0h-5a2 2 0 0 1 -2-2 2 2 0 0 1 2-2z" fill="#ffd782"/><path d="m14 5h5a0 0 0 0 1 0 0v4a0 0 0 0 1 0 0h-5a2 2 0 0 1 -2-2 2 2 0 0 1 2-2z" fill="#f9bb4b"/><path d="m31 9h30v4h-30z" fill="#ffd782"/><path d="m31 5h30v4h-30z" fill="#f9bb4b"/><path d="m3 30h58v4h-58z" fill="#7d8d9c"/><path d="m56.544 44a22.091 22.091 0 0 0 1.605-4h-52.298a22.091 22.091 0 0 0 1.605 4z" fill="#f4f4e6"/><path d="m15 47h2v2h-2z" fill="#7d8d9c"/><path d="m19 49h2v2h-2z" fill="#7d8d9c"/><path d="m39 26a4 4 0 0 0 -4 4h8a4 4 0 0 0 -4-4z" fill="#e97424"/><path d="m47 26a4 4 0 0 0 -4 4h8a4 4 0 0 0 -4-4z" fill="#ffe4b3"/><path d="m29 2a2.981 2.981 0 0 0 -2 .78 2.954 2.954 0 0 0 -4 0 2.972 2.972 0 0 0 -4.816 1.22h-4.184a2.987 2.987 0 0 0 -2.22 5 2.987 2.987 0 0 0 2.22 5h4v15h-2v-1a5.006 5.006 0 0 0 -5-5h-3v3a4.948 4.948 0 0 0 1.026 3h-6.026a1 1 0 0 0 -1 1v4a1 1 0 0 0 1 1h1.028c.407 9.174 6.372 17.09 14.972 21.132v4.868a1 1 0 0 0 1 1h24a1 1 0 0 0 1-1v-4.868c8.6-4.042 14.565-11.958 14.972-21.132h1.028a1 1 0 0 0 1-1v-4a1 1 0 0 0 -1-1h-4.026a4.948 4.948 0 0 0 1.026-3v-3h-3a4.993 4.993 0 0 0 -4.679 3.29 4.939 4.939 0 0 0 -7.321.741 4.983 4.983 0 0 0 -8.9 1.969h-2.1v-15h30v-10h-30.184a3 3 0 0 0 -2.816-2zm-4 2a1 1 0 0 1 1 1v24h-2v-24a1 1 0 0 1 1-1zm-11 2h4v2h-4a1 1 0 0 1 0-2zm0 6a1 1 0 0 1 0-2h4v2zm6-7a1 1 0 0 1 2 0v24h-2zm-10 21v-1h1a3 3 0 0 1 3 3v1h-1a3 3 0 0 1 -3-3zm-2.761 15h49.522a20.986 20.986 0 0 1 -.842 2h-47.838a20.986 20.986 0 0 1 -.842-2zm35.761 19h-22v-3.013a31.061 31.061 0 0 0 22 0zm-11-3c-9.834 0-18.4-4.858-22.821-12h45.642c-4.421 7.142-12.987 12-22.821 12zm25.373-18h-50.746a20.427 20.427 0 0 1 -.6-4h51.949a20.427 20.427 0 0 1 -.603 4zm-5.373-11a3 3 0 0 1 3-3h1v1a3 3 0 0 1 -3 3h-1zm-5-1a3.006 3.006 0 0 1 2.829 2h-5.658a3.006 3.006 0 0 1 2.829-2zm-8 0a3.006 3.006 0 0 1 2.829 2h-5.658a3.006 3.006 0 0 1 2.829-2zm21 4v2h-56v-2zm-30-2h-2v-24a1 1 0 0 1 2 0zm30-17h-28v-2h28zm0-4h-28v-2h28z"/><path d="m15 47h2v2h-2z"/><path d="m19 49h2v2h-2z"/></g></svg>