<svg height="512pt" viewBox="0 0 512 512" width="512pt" xmlns="http://www.w3.org/2000/svg"><path d="m385.835938 0-35.046876 229.601562 29.65625 4.527344 35.738282-234.128906zm0 0" fill="#e70021"/><path d="m192.984375 281.460938c0 32.878906-32.21875 59.539062-71.96875 59.539062-39.738281 0-71.96875-26.660156-71.96875-59.539062 0-43.449219 71.96875-80.5 71.96875-80.5s71.96875 37.710937 71.96875 80.5zm0 0" fill="#ffc473"/><path d="m192.984375 281.460938c0 32.878906-32.21875 59.539062-71.96875 59.539062v-140.039062s71.96875 37.710937 71.96875 80.5zm0 0" fill="#ffb74f"/><path d="m327.96875 281.460938c0 32.878906-32.21875 59.539062-71.96875 59.539062-39.738281 0-71.96875-26.660156-71.96875-59.539062 0-43.449219 71.96875-80.5 71.96875-80.5s71.96875 37.710937 71.96875 80.5zm0 0" fill="#ffc473"/><path d="m327.96875 281.460938c0 32.878906-32.21875 59.539062-71.96875 59.539062v-140.039062s71.96875 37.710937 71.96875 80.5zm0 0" fill="#ffb74f"/><path d="m462.953125 281.460938c0 32.878906-32.21875 59.539062-71.96875 59.539062-39.742187 0-71.96875-26.660156-71.96875-59.539062 0-43.449219 71.96875-80.5 71.96875-80.5s71.96875 37.710937 71.96875 80.5zm0 0" fill="#ffc473"/><path d="m462.953125 281.460938c0 32.878906-32.21875 59.539062-71.96875 59.539062v-140.039062s71.96875 37.710937 71.96875 80.5zm0 0" fill="#ffb74f"/><path d="m479.671875 0-79.816406 235.3125 28.394531 9.6875 83.121094-245zm0 0" fill="#e70021"/><path d="m13.5 310h485v97.148438h-485zm0 0" fill="#8a6746"/><path d="m256 310h242.5v97.148438h-242.5zm0 0" fill="#684f37"/><path d="m0 381h512v131h-512zm0 0" fill="#ff8900"/><path d="m256 381h256v131h-256zm0 0" fill="#e67500"/></svg>