<svg viewBox="0 0 512 512.00001" xmlns="http://www.w3.org/2000/svg"><path d="m512 256c0 141.386719-114.613281 256-256 256-15.050781 0-29.792969-1.3125-44.132812-3.800781-34.015626-28.90625-75.675782-49.078125-121.53125-57.046875-55.261719-46.957032-90.335938-116.953125-90.335938-195.152344 0-141.386719 114.613281-256 256-256s256 114.613281 256 256zm0 0" fill="#e43950"/><path d="m243.714844 287.054688-141.117188.636718c-10.96875-75.515625 12.816406-155.386718 71.257813-213.828125 56.53125-56.53125 133.109375-80.640625 206.40625-72.230469l-.523438 140.359376c-36.59375-6.21875-75.808593 5.121093-104.222656 33.53125-30.34375 30.34375-33.890625 72.289062-31.800781 111.53125zm174.949218-62.746094-141.992187.636718c9.160156 38.648438 2.460937 81.683594-27.882813 112.027344l-2.121093 2.195313c-28.414063 28.410156-69.316407 37.074219-105.910157 30.851562l-.519531 114.363281c22.238281 11.296876 46.347657 19.433594 71.738281 23.835938 49.199219-8.609375 96.433594-31.960938 134.550782-70.082031 58.445312-58.441407 83.105468-138.3125 72.136718-213.828125zm0 0" fill="#f7e6b0"/><path d="m124.808594 287.59375-23.089844.101562c-10.96875-75.519531 13.691406-155.390624 72.136719-213.832031 56.527343-56.527343 136.367187-80.640625 209.664062-72.230469l-3.359375 22.445313c-68.449218-6.539063-138.101562 15.585937-189.339844 66.820313-53.074218 53.074218-74.917968 125.90625-66.011718 196.695312zm171.25-244.734375c-35.722656 12.195313-67.496094 32.035156-94.433594 58.972656-27.851562 27.851563-48.082031 60.800781-60.132812 97.933594-11.492188 35.425781-14.761719 73.59375-9.457032 110.378906.703125 4.878907 5.230469 8.265625 10.109375 7.5625 1.984375-.285156 3.71875-1.203125 5.035157-2.519531 1.921874-1.921875 2.945312-4.695312 2.527343-7.589844-10.152343-70.371094 13.976563-142.574218 64.542969-193.144531 49.429688-49.429687 117.386719-73.273437 186.445312-65.417969 4.898438.558594 9.320313-2.960937 9.875-7.859375.558594-4.898437-2.960937-9.320312-7.859374-9.875-35.710938-4.066406-72.589844-.066406-106.652344 11.558594zm108.382812 37.621094c.710938-4.878907-2.667968-9.410157-7.546875-10.121094-64.59375-9.417969-127.234375 10.777344-171.855469 55.398437-23.007812 23.007813-40.058593 51.746094-49.308593 83.101563-8.933594 30.273437-10.6875 63.128906-5.078125 95.011719.855468 4.855468 5.484375 8.101562 10.339844 7.246094 1.875-.332032 3.507812-1.222657 4.761718-2.472657 1.988282-1.988281 3.007813-4.886719 2.480469-7.867187-10.585937-60.148438 7.894531-120.859375 49.425781-162.394532 40.601563-40.597656 97.699219-58.953124 156.660156-50.355468 4.875.707031 9.410157-2.667969 10.121094-7.546875zm-18.554687 40.976562c4.875.710938 9.40625-2.667969 10.121093-7.546875.710938-4.878906-2.667968-9.40625-7.546874-10.121094-52.820313-7.699218-104.046876 8.820313-140.550782 45.324219-18.820312 18.820313-32.769531 42.328125-40.339844 67.980469-7.300781 24.753906-8.738281 51.617188-4.148437 77.683594.855469 4.855468 5.480469 8.097656 10.335937 7.242187 1.875-.328125 3.511719-1.222656 4.761719-2.472656 1.988281-1.988281 3.007813-4.886719 2.484375-7.863281-8.472656-48.144532 6.304688-96.71875 39.53125-129.949219 32.476563-32.476563 78.164063-47.15625 125.351563-40.277344zm16.558593 106.992188c2.730469 32.355469-1.035156 65.359375-11.066406 96.273437-12.050781 37.132813-32.28125 70.082032-60.132812 97.933594-26.933594 26.9375-58.707032 46.777344-94.433594 58.972656-23.617188 8.0625-48.589844 12.445313-73.589844 13.027344-7.84375-3.050781-15.496094-6.484375-22.941406-10.265625-.011719-.003906-.027344 0-.042969-.007813v-.011718c-4.699219-2.390625-9.320312-4.917969-13.851562-7.582032 1.664062-1.058593 3.683593-1.578124 5.792969-1.339843 2.703124.308593 5.398437.550781 8.097656.761719l.097656-21.503907c-1.464844-.183593-2.929688-.363281-4.398438-.578125-4.875-.710937-8.253906-5.242187-7.542968-10.121094.710937-4.878906 5.242187-8.253906 10.121094-7.542968.632812.089844 1.265624.164062 1.902343.25l.078125-17.574219c-2.644531-1.882813-4.167968-5.132813-3.667968-8.5625.371093-2.542969 1.78125-4.667969 3.734374-6.027344l.15625-34.53125c36.59375 6.222657 75.699219-5.132812 104.109376-33.542969 30.34375-30.34375 33.507812-88.539062 31.804687-111.53125l37.878906-.171874c1.226563-1.15625 2.78125-1.988282 4.5625-2.304688 2.859375-.5 5.628907.421875 7.605469 2.25l18.066406-.082031c-.050781-.308594-.09375-.617188-.148437-.925781-.523438-2.980469.496093-5.875 2.484375-7.863282 1.25-1.253906 2.886718-2.144531 4.761718-2.476562 4.851563-.851563 9.480469 2.390625 10.335938 7.246094.230469 1.3125.429688 2.625.636719 3.9375l21.257812-.09375c-.277343-2.527344-.582031-5.050782-.949219-7.570313-.417968-2.894531.609376-5.667969 2.53125-7.589844 1.3125-1.316406 3.050782-2.230469 5.03125-2.519531 4.878907-.703125 9.40625 2.683594 10.109376 7.5625.480468 3.332031.867187 6.679688 1.207031 10.035156l15.742187-.070312c.167969 1.15625-5.855468 2.597656-15.339844 4.140625zm-245.988281 157.035156s-.820312 7.535156-2.117187 18.433594c44.550781 4.402343 87.210937-10.378907 117.996094-41.164063 31.859374-31.859375 46.742187-77.828125 40.449218-123.992187-12.207031 1.160156-20.414062 1.882812-20.414062 1.882812 9.164062 38.652344-1.460938 81.1875-31.804688 111.53125-28.410156 28.410157-67.515625 39.53125-104.109375 33.308594zm-6.4375 52.308594c54.84375 4.78125 107.230469-13.726563 145.191407-51.6875 38.84375-38.84375 57.515624-94.457031 51.113281-150.699219-5.398438.570312-10.707031 1.113281-15.765625 1.621094 3.144531 23.746094 1.363281 47.921875-5.257813 70.367187-7.570312 25.652344-21.519531 49.160157-40.339843 67.984375-34.714844 34.714844-82.75 51.335938-132.804688 46.261719-.667969 5.253906-1.386719 10.726563-2.136719 16.152344zm234.710938-206.808594c-6.46875.835937-13.484375 1.671875-20.664063 2.488281 3.15625 27.785156.8125 55.9375-6.921875 82.160156-9.25 31.355469-26.300781 60.089844-49.308593 83.097657-41.980469 41.980469-99.902344 62.328125-160.398438 56.753906-1.304688 8.339844-2.617188 15.734375-3.84375 20.960937 65.085938 4.136719 128.328125-19.710937 175.027344-66.414062 47.199218-47.191406 71.351562-113.238281 66.109375-179.046875zm0 0" fill="#f3d373"/><path d="m336.34375 71.925781c0-38.824219 21.121094-70.292969 47.175781-70.292969 26.054688 0 47.175781 31.46875 47.175781 70.292969 0 38.820313-21.121093 70.289063-47.175781 70.289063-26.054687 0-47.175781-31.46875-47.175781-70.289063zm11.328125 105.269531c-39.214844 0-71 21.378907-71 47.753907s31.785156 47.753906 71 47.753906c39.210937 0 71-21.378906 71-47.753906s-31.789063-47.753907-71-47.753907zm-174.960937 62.097657c-39.210938 0-71 21.382812-71 47.757812 0 26.371094 31.789062 47.753907 71 47.753907 39.214843 0 71.003906-21.378907 71.003906-47.753907s-31.789063-47.757812-71.003906-47.757812zm-35.847657 130.492187c-26.054687 0-47.175781 31.46875-47.175781 70.289063 0 3.75.203125 7.433593.582031 11.023437 22.21875 18.890625 47.703125 34.054688 75.488281 44.523438 11.117188-12.859375 18.28125-32.949219 18.28125-55.546875 0-38.820313-21.121093-70.289063-47.175781-70.289063zm0 0" fill="#f5c02c"/><path d="m337.429688 86.929688c-.703126-4.835938-1.085938-9.855469-1.085938-15.003907 0-38.824219 21.121094-70.292969 47.175781-70.292969 26.054688 0 47.175781 31.46875 47.175781 70.292969 0 5.148438-.382812 10.167969-1.089843 15.003907-4.617188-31.609376-23.492188-55.285157-46.089844-55.285157-22.59375 0-41.46875 23.675781-46.085937 55.285157zm-209.925782 200.121093c0-23.410156 25.054688-42.875 58.105469-46.957031-4.183594-.515625-8.492187-.800781-12.898437-.800781-39.210938 0-71 21.382812-71 47.757812 0 26.371094 31.789062 47.753907 71 47.753907 4.40625 0 8.714843-.285157 12.898437-.800782-33.050781-4.082031-58.105469-23.542968-58.105469-46.953125zm174.960938-62.101562c0-23.410157 25.050781-42.871094 58.101562-46.953125-4.183594-.515625-8.488281-.800782-12.894531-.800782-39.214844 0-71 21.378907-71 47.753907s31.785156 47.753906 71 47.753906c4.40625 0 8.710937-.28125 12.894531-.800781-33.050781-4.078125-58.101562-23.542969-58.101562-46.953125zm-165.601563 168.527343c22.691407 0 41.726563 22.71875 46.941407 53.355469.144531-2.226562.234374-4.472656.234374-6.757812 0-38.820313-21.121093-70.289063-47.175781-70.289063-26.054687 0-47.175781 31.46875-47.175781 70.289063 0 2.292969.085938 4.558593.230469 6.792969 5.207031-30.65625 24.246093-53.390626 46.945312-53.390626zm0 0" fill="#ecb700"/></svg>