<svg height="512" viewBox="0 0 64 64" width="512" xmlns="http://www.w3.org/2000/svg"><circle cx="32" cy="32" fill="#7d8d9c" r="29"/><circle cx="32" cy="32" fill="#cfdfe8" r="25"/><path d="m12.479 18.257h24.042v8.485h-24.042z" fill="#ed9914" transform="matrix(.707 -.707 .707 .707 -8.734 23.914)"/><path d="m13 28a18.613 18.613 0 0 0 12-5c6-6 5-12 5-12z" fill="#f9bb4b"/><path d="m22.479 20.257h24.042v8.485h-24.042z" fill="#ed9914" transform="matrix(.707 -.707 .707 .707 -7.219 31.571)"/><path d="m23 30a18.613 18.613 0 0 0 12-5c6-6 5-12 5-12z" fill="#f9bb4b"/><path d="m26.479 28.257h24.042v8.485h-24.042z" fill="#ed9914" transform="matrix(.707 -.707 .707 .707 -11.705 36.743)"/><path d="m27 38a18.613 18.613 0 0 0 12-5c6-6 5-12 5-12z" fill="#f9bb4b"/><path d="m47.073 35 1.427 1.516a6 6 0 0 1 -.007 8.484l-1.993-2c-2.343-2.343-1.771-5.657.573-8z" fill="#16a52a"/><path d="m38.5 43.589 1.491 1.411a6.02 6.02 0 0 0 8.5 0l-1.991-2c-2.343-2.343-5.657-1.755-8 .588z" fill="#06871e"/><g fill="#e97424"><path d="m50 32h2v2h-2z"/><path d="m13 34h2v2h-2z"/><path d="m17 16h2v2h-2z"/></g><path d="m23 41a4.141 4.141 0 0 0 -4-3 4 4 0 0 0 -4 4 4.141 4.141 0 0 0 3 4 5 5 0 1 0 5-5z" fill="#e1462b"/><path d="m22 46h2v2h-2z" fill="#f4b8b0"/><path d="m19 42h2v2h-2z" fill="#f4b8b0"/></svg>